<svg width="370" height="78" viewBox="0 0 370 78" fill="none" xmlns="http://www.w3.org/2000/svg" xmlns:xlink="http://www.w3.org/1999/xlink">
<g id="banner-sm">
<rect id="Rectangle 485" y="78" width="78" height="370" transform="rotate(-90 0 78)" fill="url(#pattern0)"/>
<path d="M16720 1880 c0 -5 -7 -10 -15 -10 -8 0 -15 -6 -15 -14 0 -27 -22 -29
-41 -5 -21 28 -26 12 -5 -16 12 -16 11 -24 -6 -56 -11 -21 -23 -65 -28 -99 -5
-34 -10 -63 -12 -64 -20 -12 -147 -109 -239 -182 -63 -51 -137 -109 -165 -130
-109 -82 -203 -163 -286 -246 l-88 -86 -137 -37 c-76 -20 -149 -40 -163 -45
-14 -5 -70 -21 -125 -36 -55 -15 -122 -33 -150 -41 -27 -8 -90 -25 -140 -38
-124 -34 -272 -74 -765 -210 -234 -64 -508 -139 -610 -166 -102 -28 -207 -57
-235 -65 -27 -8 -140 -39 -250 -69 -111 -30 -207 -57 -216 -60 -10 -4 -25 16
-53 70 l-39 76 7 139 c7 145 0 180 -35 180 -30 0 -41 43 -75 295 -17 132 -19
150 -28 245 -4 36 -9 89 -12 118 -5 52 -5 54 40 102 25 27 46 56 46 63 0 8 14
17 30 21 17 3 30 10 30 15 0 6 -12 6 -31 1 l-31 -9 6 47 c7 56 -5 77 -50 86
-25 6 -39 0 -76 -29 -26 -19 -52 -35 -57 -35 -6 0 -11 -4 -11 -8 0 -5 -35 -7
-79 -4 -90 5 -218 -17 -289 -50 -68 -32 -152 -116 -199 -199 -50 -89 -98 -243
-113 -361 -10 -82 -9 -108 6 -253 6 -67 56 -366 78 -468 12 -61 12 -67 -3 -67
-38 0 -388 30 -413 36 -35 7 -35 -1 1 -57 31 -49 64 -81 130 -128 l44 -31 408
0 408 0 26 28 c14 15 35 41 48 59 17 25 34 35 83 47 33 9 68 18 77 22 14 5 17
0 17 -27 0 -19 3 -44 6 -56 12 -42 24 -23 24 36 0 44 4 60 16 65 27 10 31 7
65 -49 18 -30 37 -55 41 -55 9 0 -15 63 -37 97 -17 26 -59 11 390 133 165 45
314 85 330 90 17 6 156 44 310 86 154 41 318 86 365 99 118 34 699 193 790
217 73 19 499 137 570 158 22 6 38 6 44 0 6 -6 18 -10 27 -10 13 0 16 -8 14
-38 -3 -53 -32 -147 -65 -212 -68 -135 -76 -243 -26 -355 23 -50 27 -72 25
-136 -1 -42 1 -81 5 -88 4 -6 5 -15 2 -20 -4 -5 15 -28 41 -50 l48 -41 440 0
440 1 38 44 c44 51 87 123 87 145 0 12 -9 15 -38 12 -36 -4 -39 -1 -98 75
-102 132 -127 180 -163 306 -18 65 -30 121 -27 125 4 3 25 8 48 11 l42 6 12
60 c29 136 75 419 84 511 10 111 0 228 -26 285 -15 33 -15 39 0 68 9 17 21 31
26 31 11 0 30 67 32 115 1 27 -6 43 -27 65 -28 30 -55 39 -55 20z m-546 -862
c-4 -13 -15 -54 -25 -93 -15 -62 -16 -73 -3 -92 8 -13 18 -23 22 -23 10 0 -1
-113 -38 -384 -17 -122 -33 -240 -36 -262 -6 -47 -5 -47 -149 -59 -63 -5 -72
-4 -95 17 -22 20 -25 32 -26 93 0 51 -6 81 -22 112 -54 105 -50 205 14 337 43
87 74 195 74 257 0 56 26 79 92 80 24 0 70 9 103 19 86 25 98 25 89 -2z
m-3346 -312 c6 -12 13 -32 16 -46 18 -90 31 -128 48 -146 15 -17 18 -33 16
-70 l-3 -49 -22 42 c-13 23 -23 52 -23 63 0 27 -23 70 -48 91 -14 12 -27 56
-50 180 -47 246 -46 257 7 100 27 -79 54 -153 59 -165z m-165 49 c17 -27 45
-67 61 -88 25 -32 30 -46 31 -101 1 -74 21 -111 63 -121 20 -4 37 -20 60 -59
27 -43 33 -67 39 -132 l6 -80 -49 -12 c-27 -7 -67 -17 -89 -23 -59 -15 -425 4
-425 22 0 12 96 389 114 449 8 25 26 86 40 135 15 50 34 110 43 134 l15 43 30
-58 c16 -33 44 -81 61 -109z m267 -176 c0 -26 -4 -50 -9 -53 -26 -17 -51 76
-31 114 12 23 13 23 26 5 8 -10 14 -40 14 -66z m3543 -187 c39 -44 143 -210
135 -217 -6 -5 -328 -38 -333 -34 -4 5 37 222 77 412 l10 48 48 -95 c26 -53
54 -104 63 -114z m-3637 142 c27 -66 3 -95 -41 -48 -40 43 -33 75 18 83 4 0
15 -15 23 -35z m-589 -126 c-3 -8 -6 -5 -6 6 -1 11 2 17 5 13 3 -3 4 -12 1
-19z m733 -210 c0 -5 -7 -8 -15 -8 -10 0 -15 10 -15 33 l1 32 14 -25 c8 -14
14 -28 15 -32z"/>
<path d="M5020 1370 c0 -100 3 -120 15 -120 12 0 15 13 15 60 0 50 3 60 18 60
12 0 22 -16 35 -60 9 -33 22 -60 28 -60 6 0 8 8 5 18 -30 104 -29 100 -12 117
20 21 21 69 0 89 -9 10 -33 16 -60 16 l-44 0 0 -120z m84 94 c31 -30 16 -74
-25 -74 -28 0 -29 2 -29 45 0 38 3 45 19 45 11 0 27 -7 35 -16z"/>
<path d="M5240 1370 l0 -120 40 0 c22 0 40 5 40 10 0 6 -13 10 -30 10 -29 0
-30 1 -30 49 0 46 2 50 28 54 l27 4 -27 2 c-27 1 -28 4 -28 50 0 49 1 50 33
54 28 3 26 4 -10 5 l-43 2 0 -120z"/>
<path d="M5429 1370 c-19 -93 -22 -120 -12 -120 7 0 13 10 13 23 0 31 11 43
40 42 19 0 26 -6 30 -29 3 -16 11 -31 18 -34 9 -3 11 3 8 20 -10 40 -46 212
-46 215 0 2 -6 3 -13 3 -9 0 -22 -39 -38 -120z m56 3 c7 -42 6 -43 -20 -43
-19 0 -26 4 -22 14 3 7 9 35 13 62 8 53 16 44 29 -33z"/>
<path d="M5620 1369 l0 -120 47 3 c60 4 73 25 73 123 0 93 -15 115 -76 115
l-44 0 0 -121z m75 97 c22 -16 32 -102 18 -156 -8 -30 -14 -35 -41 -38 l-32
-3 0 99 c0 54 3 102 7 105 10 11 27 8 48 -7z"/>
<path d="M5966 1468 c-11 -16 -16 -45 -16 -98 0 -96 15 -122 68 -118 47 4 62
32 62 118 0 86 -15 114 -62 118 -28 2 -40 -2 -52 -20z m72 0 c8 -8 12 -45 12
-100 0 -75 -3 -89 -19 -97 -13 -7 -24 -6 -37 4 -16 11 -19 27 -19 100 0 65 4
88 15 95 20 13 34 12 48 -2z"/>
<path d="M6170 1392 c0 -115 12 -142 64 -142 51 0 60 19 64 136 4 91 2 104
-12 104 -14 0 -16 -15 -16 -105 0 -94 -2 -105 -20 -115 -15 -8 -24 -6 -40 10
-17 17 -20 33 -20 115 0 57 -4 95 -10 95 -6 0 -10 -39 -10 -98z"/>
<path d="M6400 1370 c0 -73 4 -120 10 -120 6 0 10 27 10 60 0 52 3 60 19 60
14 0 22 -14 35 -60 9 -33 21 -60 27 -60 12 0 12 8 -6 68 -14 47 -14 54 0 68
18 18 20 75 3 92 -7 7 -31 12 -55 12 l-43 0 0 -120z m71 100 c37 -20 21 -80
-22 -80 -28 0 -29 2 -29 45 0 48 11 56 51 35z"/>
<path d="M11360 1260 c0 -5 5 -10 11 -10 5 0 7 5 4 10 -3 6 -8 10 -11 10 -2 0
-4 -4 -4 -10z"/>
<path d="M3133 1072 l-43 -3 0 -243 c0 -250 -2 -266 -41 -266 -36 0 -49 28
-49 106 l0 74 -50 0 -50 0 0 -75 c0 -86 20 -146 56 -170 42 -27 105 -30 158
-7 73 33 76 47 76 336 0 135 -3 246 -7 248 -5 2 -27 2 -50 0z"/>
<path d="M3355 1072 l-71 -3 -37 -282 c-21 -155 -37 -288 -37 -294 0 -9 17
-13 49 -13 l49 0 7 63 c10 93 12 97 50 97 31 0 34 -2 39 -40 3 -22 9 -58 12
-80 l6 -40 50 0 51 0 -6 38 c-3 20 -20 153 -38 294 -19 145 -37 259 -43 260
-6 2 -43 2 -81 0z m28 -294 c6 -47 6 -48 -19 -48 -29 0 -29 2 -7 135 l7 40 6
-40 c4 -22 10 -61 13 -87z"/>
<path d="M4128 1072 l-48 -3 0 -243 c0 -175 -3 -245 -12 -254 -18 -18 -56 -14
-68 7 -6 12 -10 112 -10 255 l0 236 -50 0 -50 0 0 -245 c0 -265 5 -298 52
-329 42 -28 109 -31 161 -8 75 33 77 43 79 331 1 138 0 252 -3 253 -2 2 -25 2
-51 0z"/>
<path d="M4868 1072 c-10 -2 -18 -8 -18 -13 0 -5 20 -100 45 -211 34 -151 45
-223 45 -285 l0 -83 50 0 50 0 0 81 c0 58 11 128 39 252 22 95 44 191 50 215
l9 43 -51 -3 -51 -3 -21 -140 c-12 -80 -24 -131 -27 -120 -4 11 -14 75 -24
142 l-17 121 -31 4 c-17 2 -39 2 -48 0z"/>
<path d="M5381 1063 c-45 -22 -70 -80 -71 -159 0 -68 7 -75 68 -66 32 4 32 5
32 59 0 30 5 63 10 74 12 22 59 26 78 7 15 -15 16 -122 1 -149 -5 -11 -41 -40
-79 -64 -87 -56 -102 -83 -108 -197 l-4 -88 151 0 151 0 0 50 0 50 -100 0
c-81 0 -100 3 -100 15 0 34 27 67 85 105 79 52 107 99 113 194 5 87 -13 137
-60 166 -41 25 -119 26 -167 3z"/>
<path d="M5712 1060 c-55 -34 -62 -65 -62 -288 0 -190 1 -201 23 -233 60 -90
194 -90 254 0 22 32 23 43 23 233 0 223 -7 254 -62 288 -45 27 -131 27 -176 0z
m136 -278 c2 -163 0 -192 -14 -206 -8 -9 -24 -16 -34 -16 -10 0 -26 7 -34 16
-14 14 -16 43 -14 207 l3 191 25 13 c20 10 29 10 45 -1 19 -13 20 -26 23 -204z"/>
<path d="M6053 1060 c-46 -28 -63 -67 -63 -150 l0 -70 50 0 50 0 0 63 c0 70
10 87 52 87 37 0 52 -36 44 -105 -6 -54 -19 -69 -116 -138 -63 -46 -80 -84
-80 -184 l0 -83 145 0 145 0 0 50 0 50 -95 0 c-92 0 -95 1 -95 23 0 31 23 61
67 88 93 55 125 110 127 214 1 84 -15 128 -59 155 -43 27 -128 27 -172 0z"/>
<path d="M6878 1072 l-78 -3 0 -294 0 -295 110 0 110 0 0 45 0 45 -60 0 -60 0
0 90 0 90 55 0 55 0 0 40 c0 38 -1 40 -32 41 -78 3 -73 -3 -76 82 l-3 77 56 0
55 0 0 39 c0 46 -7 48 -132 43z"/>
<path d="M7060 1072 c-6 -2 -10 -114 -10 -298 l0 -294 93 0 c103 0 146 15 181
63 20 27 21 42 21 230 0 277 -6 288 -178 297 -53 3 -102 4 -107 2z m161 -92
c18 -10 19 -23 19 -198 0 -133 -4 -192 -12 -200 -7 -7 -27 -12 -45 -12 l-33 0
0 210 0 210 26 0 c14 0 34 -5 45 -10z"/>
<path d="M7598 1072 l-88 -3 0 -39 0 -40 45 0 45 0 0 -255 0 -255 50 0 50 0 2
253 3 252 43 3 c42 3 42 3 42 43 0 37 -1 39 -32 40 -18 0 -42 1 -53 2 -11 2
-59 1 -107 -1z"/>
<path d="M7827 1074 c-4 -4 -7 -139 -7 -301 l0 -293 55 0 55 0 0 295 0 295
-34 0 c-19 0 -41 2 -48 5 -8 3 -17 2 -21 -1z"/>
<path d="M8029 1064 c-57 -37 -64 -62 -67 -263 -4 -208 4 -258 49 -296 67 -55
191 -37 234 35 17 30 20 56 24 193 4 214 -2 260 -44 305 -31 34 -37 36 -101
39 -52 3 -76 -1 -95 -13z m119 -86 c19 -19 17 -392 -2 -408 -22 -18 -59 -8
-73 20 -15 29 -17 338 -3 376 10 27 56 34 78 12z"/>
<path d="M8338 1073 l-38 -4 0 -295 0 -294 51 0 52 0 -7 163 c-4 89 -9 185
-12 212 -9 87 11 29 60 -177 l48 -198 59 0 59 0 0 295 0 295 -50 0 -50 0 0
-57 c0 -32 5 -125 10 -207 6 -82 9 -151 7 -153 -3 -2 -28 91 -57 207 -29 115
-56 210 -60 210 -5 0 -14 1 -22 3 -7 2 -30 2 -50 0z"/>
<path d="M3549 895 c-1 -96 -1 -186 -1 -200 0 -14 0 -68 1 -120 l1 -95 51 0
51 0 -5 33 c-3 17 -8 111 -11 207 l-5 175 51 -207 52 -208 58 0 58 0 0 295 0
295 -51 0 -52 0 7 -97 c15 -240 18 -318 14 -313 -3 3 -24 79 -47 170 -23 91
-47 182 -52 203 l-10 37 -54 0 -55 0 -1 -175z"/>
<path d="M4275 1048 c-2 -13 -18 -129 -35 -258 -16 -129 -33 -252 -36 -272
l-6 -38 50 0 c55 0 51 -8 68 113 6 45 7 47 39 47 38 0 40 -4 50 -97 l7 -63 49
0 c40 0 49 3 49 18 0 10 -16 139 -35 287 -19 149 -35 273 -35 278 0 4 -36 7
-80 7 -74 0 -80 -1 -85 -22z m99 -255 l7 -63 -26 0 c-24 0 -26 3 -21 28 3 15
8 54 12 87 8 68 16 54 28 -52z"/>
<path d="M4540 775 l0 -295 50 0 50 0 0 121 0 122 32 -7 c52 -10 58 -21 58
-110 0 -121 3 -126 61 -126 l49 0 -7 93 c-6 102 -29 161 -65 173 -21 6 -21 7
6 27 38 27 56 74 56 145 0 45 -5 67 -23 93 -33 50 -60 59 -169 59 l-98 0 0
-295z m182 193 c4 -7 8 -41 8 -75 0 -70 -15 -93 -61 -93 l-29 0 0 96 0 97 37
-6 c20 -4 40 -12 45 -19z"/>
<path d="M6330 860 l0 -210 90 0 90 0 0 -85 0 -85 50 0 50 0 0 295 0 295 -50
0 -50 0 0 -165 0 -165 -40 0 -40 0 0 165 0 165 -50 0 -50 0 0 -210z"/>
<path d="M7380 775 l0 -295 50 0 49 0 3 258 c2 141 2 274 0 295 l-3 37 -50 0
-49 0 0 -295z"/>
<path d="M1873 827 c4 -10 7 -24 7 -31 0 -7 7 -13 15 -13 20 0 19 4 -7 35 -13
17 -19 20 -15 9z"/>
<path d="M2270 830 c0 -5 7 -10 15 -10 8 0 15 5 15 10 0 6 -7 10 -15 10 -8 0
-15 -4 -15 -10z"/>
<path d="M2170 817 c0 -1 9 -10 19 -19 18 -16 21 -16 33 0 7 9 9 14 4 10 -4
-4 -19 -3 -32 2 -13 5 -24 8 -24 7z"/>
<path d="M1822 699 c5 -16 54 -22 76 -10 10 6 6 8 -14 8 -16 0 -37 3 -48 8
-14 6 -18 5 -14 -6z"/>
<path d="M1863 535 c-12 -14 -19 -25 -17 -25 14 0 42 21 48 35 8 23 -6 18 -31
-10z"/>
</g>
</svg>
